<?xml version="1.0" encoding="UTF-8"?>
<svg id="Layer_1" xmlns="http://www.w3.org/2000/svg" xmlns:xlink="http://www.w3.org/1999/xlink" version="1.1" viewBox="0 0 500 131">
  <!-- Generator: Adobe Illustrator 30.0.0, SVG Export Plug-In . SVG Version: 2.1.1 Build 123)  -->
  <defs>
    <style>
      .st0 {
        fill: none;
      }

      .st1 {
        fill: #1d1d1b;
      }

      .st2 {
        clip-path: url(#clippath);
      }
    </style>
    <clipPath id="clippath">
      <rect class="st0" x="13.2" y="5.7" width="467.6" height="116.6"/>
    </clipPath>
  </defs>
  <g class="st2">
    <path class="st1" d="M468.4,69.3c.2,4.4,1.2,6.6,2.9,6.6s1.6-.5,2.1-1.6c.8-5.2,1.9-8.5,3.2-9.8h.3l.3.3.3,1.1c.2,5.5.9,8.2,2.1,8.2l1.3-.8c0-7.8-1.3-11.7-4-11.7l-.8.3c-2,0-3.5,2.8-4.5,8.5h-.3v-2.4c0-3.3.6-9.3,1.9-18,0-.3-.4-.5-1.1-.8-1.8,0-3,6.7-3.7,20.1M453.3,60.6c-3,3.3-4.5,6.4-4.5,9.3v1.3c.7,3,2.8,4.5,6.4,4.5h2.4c1.1,0,3.6-1.3,7.4-4v-.5c-3.2,1.2-6.1,1.9-8.7,1.9h-.3c-3,0-4.5-.9-4.5-2.6v-.3c1.4-5.7,3.5-8.5,6.4-8.5h.8c1.2,0,1.9.4,1.9,1.1h.5l.5-.5v-.3c0-1.6-1.1-2.6-3.4-2.9h-.8c-1,0-2.3.5-4,1.6M431.2,97.4l7.2-.3c0,4.5.7,11.4,2.1,20.7v.3l-9.3-7.2c-8.9-6.2-13.9-11-15.1-14.3v-.3l.3-.3,14.8,1.3ZM468.6,85.2h.5v-1.1h-.5v1.1ZM439.8,63.8c-1.3,4.1-3.4,7.8-6.2,11.1-.4,0-.7-.8-.8-2.4,0-3.8.3-7.4.9-10.9-.1-.9-.4-1.3-.8-1.3h-.3c-1.6,0-2.4,3.6-2.5,10.9v1.1c0,3.7,1.1,5.6,3.2,5.6h.3c1.9,0,3.6-1.9,5-5.8h.3v.3l-.5,21.5v.8h-10.3l-11.7-1.1h-.3c-1.5,0-2.4.9-2.6,2.6v.5c0,3.2,4.3,7.9,13,14l15.4,11.7c1,0,1.6-.4,1.9-1.1v-.8c-1.6-9.3-2.4-17.1-2.4-23.6,2.3,0,7.8-1.2,16.7-3.7,7.1-2.8,10.6-4.9,10.6-6.4v-.5l-2.4,2.1c-2.6,1.9-10.9,3.8-24.9,5.8v-7.4l.3-13.2c0-3.8,1-9.1,3-15.9h-.3c0-1.2-.4-1.9-1.3-1.9-1.5,0-2.6,2.6-3.2,7.9M423.6,56c-2.3,12.4-3.8,18.5-4.8,18.5v-9.8c0-2.5-.4-3.7-1.1-3.7h-.8c-.7,0-1.1,1.1-1.1,3.2v6.4c0,5.1.7,7.7,2.1,7.7h1.3c2.2,0,4.5-7.6,7.2-22.8,0-.3-.4-.5-1.1-.8-.8.2-1.4.6-1.9,1.3M408.8,67.2v.3c0,2.1-2.1,3.9-6.4,5.3h-1.1c-1.2,0-1.9-.5-1.9-1.6.9-3,1.7-4.5,2.4-4.5v1.3h.5v-2.1l2.4-2.6c1.9,0,3.2,1.3,4,4M405.1,59.7c-5.5,4.1-8.2,7.8-8.2,11.1v.8c0,1.9,1.2,3.1,3.7,3.7h1.6c4.3,0,7.4-2.4,9.3-7.2v-1.9c0-.9-.8-2.3-2.4-4.2v-.3h.3l.3.3,1.1-.8c0-1.5-1-2.3-2.9-2.4l-2.6.8ZM392.3,33.2l-.3.3c-2.8,15-4.2,27-4.2,36v1.9c.7,5.5,2.3,8.2,4.8,8.2l2.1-.5v-.3l-.3-.3c-2.1,0-3.4-3-4-9,0-6.3,1.2-17.7,3.7-34.2-.3-1.4-.7-2.1-1.1-2.1h-.8ZM370,97.4l7.2-.3c0,4.5.7,11.4,2.1,20.7v.3l-9.3-7.2c-8.9-6.2-13.9-11-15.1-14.3v-.3l.3-.3,14.8,1.3ZM407.4,85.2h.5v-1.1h-.5v1.1ZM378.6,63.8c-1.3,4.1-3.4,7.8-6.2,11.1-.4,0-.7-.8-.8-2.4,0-3.8.3-7.4.9-10.9-.1-.9-.4-1.3-.8-1.3h-.3c-1.6,0-2.4,3.6-2.5,10.9v1.1c0,3.7,1.1,5.6,3.2,5.6h.3c1.9,0,3.6-1.9,5-5.8h.3v.3l-.5,21.5v.8h-10.3l-11.7-1.1h-.3c-1.5,0-2.4.9-2.6,2.6v.5c0,3.2,4.3,7.9,13,14l15.4,11.7c1,0,1.6-.4,1.9-1.1v-.8c-1.6-9.3-2.4-17.1-2.4-23.6,2.3,0,7.8-1.2,16.7-3.7,7.1-2.8,10.6-4.9,10.6-6.4v-.5l-2.4,2.1c-2.6,1.9-10.9,3.8-24.9,5.8v-7.4l.3-13.2c0-3.8,1-9.1,3-15.9h-.3c0-1.2-.4-1.9-1.3-1.9-1.5,0-2.6,2.6-3.2,7.9M351.2,60v.5l.8.8c1.2,0,4.5-.7,10.1-2.1h.3c-4.9,4.1-8,7-9.3,8.5-2.3.4-3.4.9-3.4,1.6v.3l1.1,1.1c-2.1,3-3.2,5.2-3.2,6.6s.8,1.9,2.4,2.1h.8c7.1-.4,11.3-2.5,12.7-6.1v-.3h-.5v.3c0,.9-4.1,2-12.2,3.4h-.3c0-.5,1.1-2.5,3.4-6.1,3.7-1.5,6.7-3.1,9-4.8,0-.3-.6-.6-1.9-.8l-1.1.3h-.3v-.3c4.1-2.7,6.1-5,6.1-6.9s-.6-1.9-1.9-1.9h-.5c-8.1,1.4-12.2,2.6-12.2,3.7M336.2,60.3c0-2.5-.3-3.7-.8-3.7h-.5l-.3.3c-.5,3.5-1.2,6.3-2.1,8.5v.5c0,.4.3.5.8.5l-.5,5.7c0,3.7.8,5.6,2.4,5.6l1.1-1.1v-2.1l-.5-.8v-.3l.3-7.3c0-2.7,2.3-4.9,7-6.4,2.5,1.2,3.8,1.1,3.8-.4,0-1.5-1-2.3-3.3-2.3s-4.8,1.1-7.3,3.2M312.6,69c.8-2.6,3-4,6.6-4h.3c-1.8,4.4-3.8,6.6-6.1,6.6h-.3l-.8-.8v-.3l.3-1.6ZM320.3,62.9v.3l-3.2-.8-.3.3c-3.8,0-6.2,2.4-7.2,7.2v1.6c0,1.6,1,2.6,2.9,2.9h1.3c2.2,0,4.5-1.9,7.2-5.6,1.2,2.8,3,4.2,5.6,4.2h.8c2.7,0,5.6-1.1,8.7-3.4h-.3c-2,.7-3.5,1.1-4.5,1.1h-1.6c-4.4,0-6.6-1.8-6.6-5.3v-.5c0-1.5.2-2.6.5-3.4-.4-1.1-.7-1.6-1.1-1.6h-.8c-1.1.6-1.6,1.7-1.6,3.2M279.2,36.8h4.8c7.4.8,11.1,2.7,11.1,5.8s-1.1,4.9-3.2,8.5c-4.2,5.2-7.7,8.2-10.6,9h-.3v-1.1c-1-6.7-2-10.1-2.9-10.1h-.5v.8c.7,0,1.1,4,1.3,11.9l-1.3,2.4c0,.9.5,1.5,1.6,1.6l.3,3.2v1.1h-.3c-5.3-16.7-10.1-27.1-14.3-31.3v-.3l14.3-1.6ZM260.4,37.4v1.1l.8.8c3.7,1.6,8.8,11.9,15.4,30.7,2.6,10.8,4.5,16.2,5.8,16.2s1-.4,1.3-1.1v-.3l-1.9-20.4c4.3-4.1,8.5-6.1,12.7-6.1,4.6.5,6.9,2.7,6.9,6.6v.8c0,2.6-.9,5.6-2.6,8.7-4.9,12-10.1,18-15.6,18h-.8c-1.8,0-2.6-1-2.6-2.9l-.5.5v1.1c0,2.1,1.9,3.3,5.6,3.7,2.8,0,5.7-1.7,8.7-5,7.2-11.2,10.9-19.4,10.9-24.6l-.5-3.4c-1.7-4.1-4.9-6.1-9.5-6.1h-.8l-1.9.3c4.1-4.9,6.1-9.3,6.1-13.2v-.3c0-1.1-.4-2.2-1.3-3.4-2.5-3.4-7.6-5-15.4-5-13.8,1.1-20.7,2.3-20.7,3.4M216.2,69c.8-2.6,3-4,6.6-4h.3c-1.8,4.4-3.8,6.6-6.1,6.6h-.3l-.8-.8v-.3l.3-1.6ZM223.9,62.9v.3l-3.2-.8-.3.3c-3.8,0-6.2,2.4-7.2,7.2v1.6c0,1.6,1,2.6,2.9,2.9h1.3c2.2,0,4.5-1.9,7.2-5.6,1.2,2.8,3,4.2,5.6,4.2h.8c2.7,0,5.6-1.1,8.7-3.4h-.3c-2,.7-3.5,1.1-4.5,1.1h-1.6c-4.4,0-6.6-1.8-6.6-5.3v-.5c0-1.5.2-2.6.5-3.4-.4-1.1-.7-1.6-1.1-1.6h-.8c-1.1.6-1.6,1.7-1.6,3.2M202.2,64.4h.8l.3,1.1-.3.3v.3l.3,1.3-.3.3.3,1.1v1.9c-1.5,1.2-2.9,1.9-4.2,1.9s-1.6-.7-1.9-2.1c.7-3.9,2.3-5.8,5-5.8M203.3,62.6l-1.3-.3h-1.6c-3.9,1.1-5.8,3.7-5.8,7.7v.5c.4,3,1.8,4.5,4.2,4.5h.3c1.1,0,2.6-.4,4.5-1.1h.3c-.1,1.4,1.1,3,3.8,5h.3l.3-.3-1.9-6.6c3.2-4.1,4.8-7.2,4.8-9.3v-.3h-.3c0,1.6-1.6,3.6-4.8,6.1v-1.9l.3-8.7,2.6-23.3-.8-.8h-.3c-1.6,0-3.1,9.5-4.5,28.6M175.7,69c.8-2.6,3-4,6.6-4h.3c-1.8,4.4-3.8,6.6-6.1,6.6h-.3l-.8-.8v-.3l.3-1.6ZM183.4,62.9v.3l-3.2-.8-.3.3c-3.8,0-6.2,2.4-7.2,7.2v1.6c0,1.6,1,2.6,2.9,2.9h1.3c2.2,0,4.5-1.9,7.2-5.6,1.2,2.8,3,4.2,5.6,4.2h.8c2.7,0,5.6-1.1,8.7-3.4h-.3c-2,.7-3.5,1.1-4.5,1.1h-1.6c-4.4,0-6.6-1.8-6.6-5.3v-.5c0-1.5.2-2.6.5-3.4-.4-1.1-.7-1.6-1.1-1.6h-.8c-1.1.6-1.6,1.7-1.6,3.2M167.2,33.2l-.3.3c-2.8,15-4.2,27-4.2,36v1.9c.7,5.5,2.3,8.2,4.8,8.2l2.1-.5v-.3l-.3-.3c-2.1,0-3.4-3-4-9,0-6.3,1.2-17.7,3.7-34.2-.3-1.4-.7-2.1-1.1-2.1h-.8ZM164,14.4c-3.9,14.3-6.6,25.4-8.2,33.4-3.4,22.4-6,33.6-7.9,33.6s-4.9-12.9-7.2-38.7c0-4.3-1.1-8.4-3.4-12.5h-.5c.4,5.2.9,9.6,1.6,13.2,1.6,27,4.6,40.5,9,40.5h1.1c2.4,0,4.4-3.5,5.8-10.6,2.1-13,4.1-24.1,6.1-33.4,3.2-13.6,6.3-24.9,9.3-33.6l-.8-.8h-1.1c-.5.2-1.8,3.1-3.7,8.7M89.8,69c.8-2.6,3-4,6.6-4h.3c-1.8,4.4-3.8,6.6-6.1,6.6h-.3l-.8-.8v-.3l.3-1.6ZM97.5,62.9v.3l-3.2-.8-.3.3c-3.8,0-6.2,2.4-7.2,7.2v1.6c0,1.6,1,2.6,2.9,2.9h1.3c2.2,0,4.5-1.9,7.2-5.6,1.2,2.8,3,4.2,5.6,4.2h.8c2.7,0,5.6-1.1,8.7-3.4h-.3c-2,.7-3.5,1.1-4.5,1.1h-1.6c-4.4,0-6.6-1.8-6.6-5.3v-.5c0-1.5.2-2.6.5-3.4-.4-1.1-.7-1.6-1.1-1.6h-.8c-1.1.6-1.6,1.7-1.6,3.2M74,60.3c0-2.5-.3-3.7-.8-3.7h-.5l-.3.3c-.5,3.5-1.2,6.3-2.1,8.5v.5c0,.4.3.5.8.5l-.5,5.7c0,3.7.8,5.6,2.4,5.6l1.1-1.1v-2.1l-.5-.8v-.3l.3-7.3c0-2.7,2.3-4.9,7-6.4,2.5,1.2,3.8,1.1,3.8-.4,0-1.5-1-2.3-3.3-2.3s-4.8,1.1-7.3,3.2M26.7,35.1h1.1c7.8,0,14.7,1.3,20.9,4,9.7,4.8,14.6,11,14.6,18.5s-2.7,9.8-8.2,15.4c-6.8,6-13.1,9.6-19.1,10.6-.5,0-1.1-7.7-1.9-23-.7-14.5-2.2-22.4-4.5-23.6l-.5.5c1.9,14.4,2.9,25.7,2.9,33.9h-.3l-6.9-14.3c-6-9.8-9-15.3-9-16.4v-.3c.7-3.2,4.4-4.9,10.9-5.3M19,33.8c-3.9,1.8-5.8,3.8-5.8,5.8v1.6l.3,1.9,11.4,19.9c3.4,6.7,6.2,13.6,8.5,20.9-4.9-.7-7.4-2.6-7.4-5.8v-1.6l.5-2.4v-.3c-.7,0-1.2,1.7-1.6,5,0,4.5,2.8,7.1,8.5,7.7h1.1c3.8,0,9.1-2,16.2-6.1,10.2-8.1,15.4-15.4,15.4-22v-.5c0-1.8-.4-4.1-1.1-6.9-5.3-12-17.9-18.2-37.9-18.8-3.9.4-6.5.9-7.9,1.6"/>
  </g>
</svg>